<mxfile host="app.diagrams.net" agent="Mozilla/5.0 (Windows NT 10.0; Win64; x64) AppleWebKit/537.36 (KHTML, like Gecko) Chrome/135.0.0.0 Safari/537.36" version="26.2.14">
  <diagram name="Page-1" id="0DrnParks9U9yli69fyN">
    <mxGraphModel dx="868" dy="2202" grid="1" gridSize="10" guides="1" tooltips="1" connect="1" arrows="1" fold="1" page="1" pageScale="1" pageWidth="1169" pageHeight="1654" background="light-dark(#FFFFFF,#FCFCFC)" math="0" shadow="0">
      <root>
        <mxCell id="0" />
        <mxCell id="1" parent="0" />
        <mxCell id="1jCV5pNEdhxRz_F-BY_v-8" value="" style="edgeStyle=orthogonalEdgeStyle;rounded=0;orthogonalLoop=1;jettySize=auto;html=1;" edge="1" parent="1" source="1jCV5pNEdhxRz_F-BY_v-2">
          <mxGeometry relative="1" as="geometry">
            <mxPoint x="189" y="-720" as="targetPoint" />
          </mxGeometry>
        </mxCell>
        <mxCell id="1jCV5pNEdhxRz_F-BY_v-10" value="" style="edgeStyle=orthogonalEdgeStyle;rounded=0;orthogonalLoop=1;jettySize=auto;html=1;" edge="1" parent="1" source="1jCV5pNEdhxRz_F-BY_v-2">
          <mxGeometry relative="1" as="geometry">
            <mxPoint x="189" y="-720" as="targetPoint" />
          </mxGeometry>
        </mxCell>
        <mxCell id="1jCV5pNEdhxRz_F-BY_v-11" value="" style="edgeStyle=orthogonalEdgeStyle;rounded=0;orthogonalLoop=1;jettySize=auto;html=1;fontSize=18;" edge="1" parent="1" source="1jCV5pNEdhxRz_F-BY_v-2">
          <mxGeometry relative="1" as="geometry">
            <mxPoint x="189" y="-720" as="targetPoint" />
          </mxGeometry>
        </mxCell>
        <mxCell id="1jCV5pNEdhxRz_F-BY_v-2" value="&lt;font style=&quot;font-size: 16px;&quot;&gt;CPU 1&lt;/font&gt;" style="points=[[0,0,0],[0.25,0,0],[0.5,0,0],[0.75,0,0],[1,0,0],[0,1,0],[0.25,1,0],[0.5,1,0],[0.75,1,0],[1,1,0],[0,0.25,0],[0,0.5,0],[0,0.75,0],[1,0.25,0],[1,0.5,0],[1,0.75,0]];outlineConnect=0;fontColor=light-dark(#232F3E,#000000);fillColor=#ED7100;strokeColor=#ffffff;dashed=0;verticalLabelPosition=bottom;verticalAlign=top;align=center;html=1;fontSize=12;fontStyle=0;aspect=fixed;shape=mxgraph.aws4.resourceIcon;resIcon=mxgraph.aws4.compute;fontFamily=Times New Roman;" vertex="1" parent="1">
          <mxGeometry x="150" y="-1250" width="80" height="80" as="geometry" />
        </mxCell>
        <mxCell id="1jCV5pNEdhxRz_F-BY_v-16" value="&lt;font style=&quot;font-size: 16px;&quot;&gt;CPU 2&lt;/font&gt;" style="points=[[0,0,0],[0.25,0,0],[0.5,0,0],[0.75,0,0],[1,0,0],[0,1,0],[0.25,1,0],[0.5,1,0],[0.75,1,0],[1,1,0],[0,0.25,0],[0,0.5,0],[0,0.75,0],[1,0.25,0],[1,0.5,0],[1,0.75,0]];outlineConnect=0;fontColor=light-dark(#232F3E,#000000);fillColor=#ED7100;strokeColor=#ffffff;dashed=0;verticalLabelPosition=bottom;verticalAlign=top;align=center;html=1;fontSize=12;fontStyle=0;aspect=fixed;shape=mxgraph.aws4.resourceIcon;resIcon=mxgraph.aws4.compute;fontFamily=Times New Roman;" vertex="1" parent="1">
          <mxGeometry x="260" y="-1250" width="80" height="80" as="geometry" />
        </mxCell>
        <mxCell id="1jCV5pNEdhxRz_F-BY_v-17" value="&lt;font style=&quot;font-size: 16px;&quot;&gt;CPU 3&lt;/font&gt;" style="points=[[0,0,0],[0.25,0,0],[0.5,0,0],[0.75,0,0],[1,0,0],[0,1,0],[0.25,1,0],[0.5,1,0],[0.75,1,0],[1,1,0],[0,0.25,0],[0,0.5,0],[0,0.75,0],[1,0.25,0],[1,0.5,0],[1,0.75,0]];outlineConnect=0;fontColor=light-dark(#232F3E,#000000);fillColor=#ED7100;strokeColor=#ffffff;dashed=0;verticalLabelPosition=bottom;verticalAlign=top;align=center;html=1;fontSize=12;fontStyle=0;aspect=fixed;shape=mxgraph.aws4.resourceIcon;resIcon=mxgraph.aws4.compute;fontFamily=Times New Roman;" vertex="1" parent="1">
          <mxGeometry x="370" y="-1250" width="80" height="80" as="geometry" />
        </mxCell>
        <mxCell id="1jCV5pNEdhxRz_F-BY_v-18" value="&lt;font style=&quot;font-size: 16px;&quot;&gt;CPU 4&lt;/font&gt;" style="points=[[0,0,0],[0.25,0,0],[0.5,0,0],[0.75,0,0],[1,0,0],[0,1,0],[0.25,1,0],[0.5,1,0],[0.75,1,0],[1,1,0],[0,0.25,0],[0,0.5,0],[0,0.75,0],[1,0.25,0],[1,0.5,0],[1,0.75,0]];outlineConnect=0;fontColor=light-dark(#232F3E,#000000);fillColor=#ED7100;strokeColor=#ffffff;dashed=0;verticalLabelPosition=bottom;verticalAlign=top;align=center;html=1;fontSize=12;fontStyle=0;aspect=fixed;shape=mxgraph.aws4.resourceIcon;resIcon=mxgraph.aws4.compute;fontFamily=Times New Roman;" vertex="1" parent="1">
          <mxGeometry x="480" y="-1250" width="80" height="80" as="geometry" />
        </mxCell>
        <mxCell id="1jCV5pNEdhxRz_F-BY_v-21" value="" style="edgeStyle=orthogonalEdgeStyle;html=1;endArrow=none;elbow=vertical;startArrow=block;startFill=1;strokeColor=light-dark(#000000,#000000);rounded=0;" edge="1" parent="1">
          <mxGeometry width="100" relative="1" as="geometry">
            <mxPoint x="189.57999999999998" y="-1110" as="sourcePoint" />
            <mxPoint x="189.57999999999998" y="-1140" as="targetPoint" />
          </mxGeometry>
        </mxCell>
        <mxCell id="1jCV5pNEdhxRz_F-BY_v-22" value="" style="edgeStyle=orthogonalEdgeStyle;html=1;endArrow=none;elbow=vertical;startArrow=block;startFill=1;strokeColor=light-dark(#000000,#000000);rounded=0;" edge="1" parent="1">
          <mxGeometry width="100" relative="1" as="geometry">
            <mxPoint x="299.58000000000004" y="-1110" as="sourcePoint" />
            <mxPoint x="299.58000000000004" y="-1140" as="targetPoint" />
          </mxGeometry>
        </mxCell>
        <mxCell id="1jCV5pNEdhxRz_F-BY_v-23" value="" style="edgeStyle=orthogonalEdgeStyle;html=1;endArrow=none;elbow=vertical;startArrow=block;startFill=1;strokeColor=light-dark(#000000,#000000);rounded=0;" edge="1" parent="1">
          <mxGeometry width="100" relative="1" as="geometry">
            <mxPoint x="409.58000000000004" y="-1110" as="sourcePoint" />
            <mxPoint x="409.58000000000004" y="-1140" as="targetPoint" />
          </mxGeometry>
        </mxCell>
        <mxCell id="1jCV5pNEdhxRz_F-BY_v-24" value="" style="edgeStyle=orthogonalEdgeStyle;html=1;endArrow=none;elbow=vertical;startArrow=block;startFill=1;strokeColor=light-dark(#000000,#000000);rounded=0;" edge="1" parent="1">
          <mxGeometry width="100" relative="1" as="geometry">
            <mxPoint x="519.5799999999999" y="-1110" as="sourcePoint" />
            <mxPoint x="519.5799999999999" y="-1140" as="targetPoint" />
          </mxGeometry>
        </mxCell>
      </root>
    </mxGraphModel>
  </diagram>
</mxfile>
